<svg xmlns="http://www.w3.org/2000/svg" xmlns:xlink="http://www.w3.org/1999/xlink" id="dfahdagh" width="334" height="288.75" class="css-88gl6m" preserveAspectRatio="xMidYMid meet" viewBox="0 0 334 288.75"><g id="SvgjsG20605" fill="#FFF" featurekey="symbolContainer"><path xmlns="http://www.w3.org/2000/svg" fill="#FFF" d="M100.215 200.43c55.259 0 100.215-44.956 100.215-100.215S155.474 0 100.215 0 0 44.956 0 100.215 44.956 200.43 100.215 200.43zm0-190.43c49.745 0 90.215 40.47 90.215 90.215s-40.47 90.215-90.215 90.215C50.47 190.43 10 149.959 10 100.215S50.47 10 100.215 10z" transform="matrix(1.440652649561718,0,0,1.440652649561718,0,0)"/></g><g id="SvgjsG20606" fill="#FFF" featurekey="monogramFeature-0"><path fill="#FFF" d="M17.82 38.46 c5.94 0 10.74 4.8 10.74 10.74 s-4.8 10.74 -10.74 10.74 l-14.58 0 l6.42 -13.08 l5.34 0 l-4.08 8.28 l6.9 0 c3.3 0 5.94 -2.64 5.94 -5.94 s-2.64 -5.94 -5.94 -5.94 l-5.34 0 c-5.58 0 -10.08 -4.56 -10.08 -10.08 s4.5 -10.02 10.08 -10.02 l0 4.8 c-2.94 0 -5.28 2.34 -5.28 5.22 s2.34 5.28 5.28 5.28 l5.34 0 z M15.9 35.22 l3.6 -7.26 l-4.86 0 l0 -4.8 l12.48 0 l-5.88 12.06 l-5.34 0 z M42.327 37.5 l4.8 -9.54 l-14.7 0 l0 -4.8 l22.5 0 l-7.26 14.34 l-5.34 0 z M37.227 30.96 l0 10.14 l14.58 0 l0 4.8 l-14.58 0 l0 14.04 l-4.8 0 l0 -28.98 l4.8 0 z" transform="matrix(3.331619901699667,0,0,3.331619901699667,49.00411350683293,5.839709003243229)"/></g><g id="SvgjsG20607" fill="#FFF" featurekey="nameFeature-0"><path fill="#FFF" d="M5.92 40.44 c-2.36 0 -4.08 -1.8 -4.08 -4.04 s1.72 -4.04 4.08 -4.04 c2.4 0 4.2 1.8 4.2 4.04 s-1.8 4.04 -4.2 4.04 z M5.633999999999999 40.44 c-2.36 0 -4.08 -1.8 -4.08 -4.04 s1.72 -4.04 4.08 -4.04 c2.4 0 4.2 1.8 4.2 4.04 s-1.8 4.04 -4.2 4.04 z M5.347999999999997 40.44 c-2.36 0 -4.08 -1.8 -4.08 -4.04 s1.72 -4.04 4.08 -4.04 c2.4 0 4.2 1.8 4.2 4.04 s-1.8 4.04 -4.2 4.04 z M5.061999999999996 40.44 c-2.36 0 -4.08 -1.8 -4.08 -4.04 s1.72 -4.04 4.08 -4.04 c2.4 0 4.2 1.8 4.2 4.04 s-1.8 4.04 -4.2 4.04 z M4.7759999999999945 40.44 c-2.36 0 -4.08 -1.8 -4.08 -4.04 s1.72 -4.04 4.08 -4.04 c2.4 0 4.2 1.8 4.2 4.04 s-1.8 4.04 -4.2 4.04 z" transform="matrix(2.6528014183679463,0,0,2.6528014183679463,307.1536499497054,14.155354602106087)"/></g><g id="SvgjsG20608" fill="#FFF" featurekey="nameFeature-1"><path fill="#FFF" d="M5.92 40.44 c-2.36 0 -4.08 -1.8 -4.08 -4.04 s1.72 -4.04 4.08 -4.04 c2.4 0 4.2 1.8 4.2 4.04 s-1.8 4.04 -4.2 4.04 z M5.633999999999999 40.44 c-2.36 0 -4.08 -1.8 -4.08 -4.04 s1.72 -4.04 4.08 -4.04 c2.4 0 4.2 1.8 4.2 4.04 s-1.8 4.04 -4.2 4.04 z" transform="matrix(2.9185150647365172,0,0,2.9185150647365172,304.464627878864,36.55686185705751)"/></g><g id="SvgjsG20609" fill="#FFF" featurekey="nameFeature-2"><path fill="#FFF" d="M5.92 40.44 c-2.36 0 -4.08 -1.8 -4.08 -4.04 s1.72 -4.04 4.08 -4.04 c2.4 0 4.2 1.8 4.2 4.04 s-1.8 4.04 -4.2 4.04 z M5.633999999999999 40.44 c-2.36 0 -4.08 -1.8 -4.08 -4.04 s1.72 -4.04 4.08 -4.04 c2.4 0 4.2 1.8 4.2 4.04 s-1.8 4.04 -4.2 4.04 z" transform="matrix(2.9185150647365172,0,0,2.9185150647365172,304.464627878864,70.55686185705751)"/></g></svg>