<?xml version="1.0" encoding="utf-8"?>
<!-- Generator: Adobe Illustrator 27.3.1, SVG Export Plug-In . SVG Version: 6.00 Build 0)  -->
<svg version="1.1" id="Layer_1" xmlns="http://www.w3.org/2000/svg" xmlns:xlink="http://www.w3.org/1999/xlink" x="0px" y="0px"
	 viewBox="0 0 261.4 261.4" style="enable-background:new 0 0 261.4 261.4;" xml:space="preserve">
<style type="text/css">
	.st0{display:none;}
	.st1{display:inline;fill:#E84545;}
	.st2{fill:#E84545;}
</style>
<g id="SvgjsG20605" transform="matrix(1.440652649561718,0,0,1.440652649561718,0,0)" class="st0">
	<path class="st1" d="M90.7,181.4c50,0,90.7-40.7,90.7-90.7S140.7,0,90.7,0S0,40.7,0,90.7S40.7,181.4,90.7,181.4z M90.7,9.1
		c45,0,81.7,36.6,81.7,81.7s-36.6,81.7-81.7,81.7S9.1,135.7,9.1,90.7S45.7,9.1,90.7,9.1z"/>
</g>
<g id="SvgjsG20605_00000154384194549158263860000005484339964275889036_" transform="matrix(1.440652649561718,0,0,1.440652649561718,0,0)">
	<path class="st2" d="M90.7,169.1c43.2,0,78.4-35.2,78.4-78.4s-35.2-78.4-78.4-78.4S12.3,47.5,12.3,90.7S47.5,169.1,90.7,169.1z
		 M90.7,9.1c41.1,0,81.7,40.6,81.7,81.7s-40.6,81.7-81.7,81.7S9.1,131.8,9.1,90.7S49.6,9.1,90.7,9.1z"/>
</g>
<g id="SvgjsG20606" transform="matrix(3.331619901699667,0,0,3.331619901699667,49.00411350683293,5.839709003243229)">
	<path class="st2" d="M14.7,34.6c5.4,0,9.7,4.3,9.7,9.7s-4.3,9.7-9.7,9.7H1.5l5.8-11.8h4.8l-3.7,7.5h6.2c3,0,5.4-2.4,5.4-5.4
		c0-3-2.4-5.4-5.4-5.4H9.9c-5.1,0-9.1-4.1-9.1-9.1s4.1-9.1,9.1-9.1v4.3c-2.7,0-4.8,2.1-4.8,4.7s2.1,4.8,4.8,4.8L14.7,34.6L14.7,34.6
		z M13,31.7l3.3-6.6h-4.4v-4.3h11.3l-5.3,10.9C17.8,31.7,13,31.7,13,31.7z M36.9,33.8l4.3-8.6H28v-4.3h20.4l-6.6,13H36.9z
		 M32.3,27.9V37h13.2v4.3H32.3v12.7H28V27.9H32.3L32.3,27.9z"/>
</g>
</svg>
