<svg xmlns="http://www.w3.org/2000/svg" xmlns:xlink="http://www.w3.org/1999/xlink" id="Layer_1" x="0" y="0" version="1.1" viewBox="0 0 261.4 261.4" style="enable-background:new 0 0 261.4 261.4" xml:space="preserve"><style type="text/css">.st0{fill:#e84545}.st1{display:none}.st2{display:inline;fill:#e84545}</style><g id="SvgjsG20605"><path d="M90.7,181.4c50,0,90.7-40.7,90.7-90.7S140.7,0,90.7,0S0,40.7,0,90.7S40.7,181.4,90.7,181.4z M90.7,9.1 c45,0,81.7,36.6,81.7,81.7s-36.6,81.7-81.7,81.7S9.1,135.7,9.1,90.7S45.7,9.1,90.7,9.1z" class="st0" transform="matrix(1.440652649561718,0,0,1.440652649561718,0,0)"/></g><g id="SvgjsG20605_00000154384194549158263860000005484339964275889036_" class="st1"><path d="M90.7,166.7c41.9,0,76-34.1,76-76s-34.1-76-76-76s-76,34.1-76,76S48.8,166.7,90.7,166.7z M90.7,11.5 c39.8,0,79.2,39.3,79.2,79.2s-39.3,79.2-79.2,79.2s-79.2-39.3-79.2-79.2S50.9,11.5,90.7,11.5z" class="st2" transform="matrix(1.440652649561718,0,0,1.440652649561718,0,0)"/></g><g id="SvgjsG20606"><path d="M14.7,34.6c5.4,0,9.7,4.3,9.7,9.7s-4.3,9.7-9.7,9.7H1.5l5.8-11.8h4.8l-3.7,7.5h6.2c3,0,5.4-2.4,5.4-5.4 c0-3-2.4-5.4-5.4-5.4H9.9c-5.1,0-9.1-4.1-9.1-9.1s4.1-9.1,9.1-9.1v4.3c-2.7,0-4.8,2.1-4.8,4.7s2.1,4.8,4.8,4.8L14.7,34.6L14.7,34.6 z M13,31.7l3.3-6.6h-4.4v-4.3h11.3l-5.3,10.9C17.8,31.7,13,31.7,13,31.7z M36.9,33.8l4.3-8.6H28v-4.3h20.4l-6.6,13H36.9z M32.3,27.9V37h13.2v4.3H32.3v12.7H28V27.9H32.3L32.3,27.9z" class="st0" transform="matrix(3.331619901699667,0,0,3.331619901699667,49.00411350683293,5.839709003243229)"/></g></svg>