<?xml version="1.0" encoding="utf-8"?>
<!-- Generator: Adobe Illustrator 27.3.1, SVG Export Plug-In . SVG Version: 6.00 Build 0)  -->
<svg version="1.1" id="Layer_1" xmlns="http://www.w3.org/2000/svg" xmlns:xlink="http://www.w3.org/1999/xlink" x="0px" y="0px"
	 viewBox="0 0 122.5 122.5" style="enable-background:new 0 0 122.5 122.5;" xml:space="preserve">
<style type="text/css">
	.st0{fill:#FFFFFF;}
</style>
<g transform="translate(-7.995886493167068, -77.16029099675677) scale(3.331619901699667)">
	<path class="st0" d="M13.2,39.4c4.2,0,7.5,3.4,7.5,7.5s-3.4,7.5-7.5,7.5H3l4.5-9.2h3.7l-2.9,5.8h4.8c2.3,0,4.2-1.8,4.2-4.2
		c0-2.3-1.8-4.2-4.2-4.2H9.5c-3.9,0-7.1-3.2-7.1-7.1s3.2-7,7.1-7V32c-2.1,0-3.7,1.6-3.7,3.7s1.6,3.7,3.7,3.7L13.2,39.4L13.2,39.4z
		 M11.9,37.1l2.5-5.1H11v-3.4h8.7l-4.1,8.4C15.6,37.1,11.9,37.1,11.9,37.1z M30.4,38.7l3.4-6.7H23.4v-3.4h15.8l-5.1,10H30.4z
		 M26.8,34.1v7.1H37v3.4H26.8v9.8h-3.4V34.1H26.8L26.8,34.1z"/>
</g>
</svg>
