<svg xmlns:xlink="http://www.w3.org/1999/xlink" xmlns="http://www.w3.org/2000/svg" viewBox="0 0 318 273.4375" preserveAspectRatio="xMidYMid meet" class="css-1as675s" id="bhgecbfb" width="318"  height="273.4375" ><defs id="SvgjsDefs21112"></defs><g id="SvgjsG21113" featurekey="symbolContainer" transform="matrix(2.734375,0,0,2.734375,0,0)" fill="url(&quot;#symbol-foil0.1&quot;)"><path xmlns="http://www.w3.org/2000/svg" d="M0 0h100v100H0z" fill="url(&quot;#symbol-foil0.1&quot;)"></path></g><g id="SvgjsG21114" featurekey="monogramFeature-0" transform="matrix(3.331619901699667,0,0,3.331619901699667,41.00411350683293,-2.160290996756771)" fill="#444444"><path d="M17.82 38.46 c5.94 0 10.74 4.8 10.74 10.74 s-4.8 10.74 -10.74 10.74 l-14.58 0 l6.42 -13.08 l5.34 0 l-4.08 8.28 l6.9 0 c3.3 0 5.94 -2.64 5.94 -5.94 s-2.64 -5.94 -5.94 -5.94 l-5.34 0 c-5.58 0 -10.08 -4.56 -10.08 -10.08 s4.5 -10.02 10.08 -10.02 l0 4.8 c-2.94 0 -5.28 2.34 -5.28 5.22 s2.34 5.28 5.28 5.28 l5.34 0 z M15.9 35.22 l3.6 -7.26 l-4.86 0 l0 -4.8 l12.48 0 l-5.88 12.06 l-5.34 0 z M42.327 37.5 l4.8 -9.54 l-14.7 0 l0 -4.8 l22.5 0 l-7.26 14.34 l-5.34 0 z M37.227 30.96 l0 10.14 l14.58 0 l0 4.8 l-14.58 0 l0 14.04 l-4.8 0 l0 -28.98 l4.8 0 z" fill="#444444"></path></g><g id="SvgjsG21115" featurekey="nameFeature-0" transform="matrix(2.6528014183679463,0,0,2.6528014183679463,291.1536499497054,6.155354602106087)" fill="url(&quot;#symbol-foil0.1&quot;)"><path d="M5.92 40.44 c-2.36 0 -4.08 -1.8 -4.08 -4.04 s1.72 -4.04 4.08 -4.04 c2.4 0 4.2 1.8 4.2 4.04 s-1.8 4.04 -4.2 4.04 z M5.633999999999999 40.44 c-2.36 0 -4.08 -1.8 -4.08 -4.04 s1.72 -4.04 4.08 -4.04 c2.4 0 4.2 1.8 4.2 4.04 s-1.8 4.04 -4.2 4.04 z M5.347999999999997 40.44 c-2.36 0 -4.08 -1.8 -4.08 -4.04 s1.72 -4.04 4.08 -4.04 c2.4 0 4.2 1.8 4.2 4.04 s-1.8 4.04 -4.2 4.04 z M5.061999999999996 40.44 c-2.36 0 -4.08 -1.8 -4.08 -4.04 s1.72 -4.04 4.08 -4.04 c2.4 0 4.2 1.8 4.2 4.04 s-1.8 4.04 -4.2 4.04 z M4.7759999999999945 40.44 c-2.36 0 -4.08 -1.8 -4.08 -4.04 s1.72 -4.04 4.08 -4.04 c2.4 0 4.2 1.8 4.2 4.04 s-1.8 4.04 -4.2 4.04 z" fill="url(&quot;#symbol-foil0.1&quot;)"></path></g><g id="SvgjsG21116" featurekey="nameFeature-1" transform="matrix(2.9185150647365172,0,0,2.9185150647365172,288.464627878864,28.556861857057513)" fill="url(&quot;#symbol-foil0.1&quot;)"><path d="M5.92 40.44 c-2.36 0 -4.08 -1.8 -4.08 -4.04 s1.72 -4.04 4.08 -4.04 c2.4 0 4.2 1.8 4.2 4.04 s-1.8 4.04 -4.2 4.04 z M5.633999999999999 40.44 c-2.36 0 -4.08 -1.8 -4.08 -4.04 s1.72 -4.04 4.08 -4.04 c2.4 0 4.2 1.8 4.2 4.04 s-1.8 4.04 -4.2 4.04 z" fill="url(&quot;#symbol-foil0.1&quot;)"></path></g><g id="SvgjsG21117" featurekey="nameFeature-2" transform="matrix(2.9185150647365172,0,0,2.9185150647365172,288.464627878864,62.55686185705751)" fill="url(&quot;#symbol-foil0.1&quot;)"><path d="M5.92 40.44 c-2.36 0 -4.08 -1.8 -4.08 -4.04 s1.72 -4.04 4.08 -4.04 c2.4 0 4.2 1.8 4.2 4.04 s-1.8 4.04 -4.2 4.04 z M5.633999999999999 40.44 c-2.36 0 -4.08 -1.8 -4.08 -4.04 s1.72 -4.04 4.08 -4.04 c2.4 0 4.2 1.8 4.2 4.04 s-1.8 4.04 -4.2 4.04 z" fill="url(&quot;#symbol-foil0.1&quot;)"></path></g></svg>