<?xml version="1.0" encoding="utf-8"?>
<!-- Generator: Adobe Illustrator 27.3.1, SVG Export Plug-In . SVG Version: 6.00 Build 0)  -->
<svg version="1.1" id="Layer_1" xmlns="http://www.w3.org/2000/svg" xmlns:xlink="http://www.w3.org/1999/xlink" x="0px" y="0px"
	 viewBox="0 0 304.9 304.9" style="enable-background:new 0 0 304.9 304.9;" xml:space="preserve">
<style type="text/css">
	.st0{fill:#E84545;}
	.st1{fill:#111111;}
</style>
<g id="SvgjsG21091" transform="matrix(5.512851296219928,0,0,5.512851296219928,0.00004056382528809134,0.023008136450023368)">
	<path class="st0" d="M26,54.9L4.9,42.7c-1-0.6-1.7-1.7-1.7-2.9V15.5c0-1.2,0.6-2.3,1.7-2.9L26,0.4c1-0.6,2.3-0.6,3.3,0l21.1,12.2
		c1,0.6,1.7,1.7,1.7,2.9v24.3c0,1.2-0.6,2.3-1.7,2.9L29.3,54.9C28.3,55.5,27,55.5,26,54.9z"/>
</g>
<g id="SvgjsG21092" transform="matrix(3.331619901699667,0,0,3.331619901699667,41.00411350683293,16.83970900324323)">
	<path class="st1" d="M22.7,37.7c5.8,0,10.6,4.7,10.6,10.6s-4.7,10.6-10.6,10.6H8.4L14.7,46H20l-4,8.1h6.8c3.2,0,5.8-2.6,5.8-5.8
		s-2.6-5.8-5.8-5.8h-5.3c-5.5,0-9.9-4.5-9.9-9.9s4.4-9.9,9.9-9.9v4.7c-2.9,0-5.2,2.3-5.2,5.1c0,2.8,2.3,5.2,5.2,5.2L22.7,37.7
		L22.7,37.7z M20.8,34.6l3.5-7.1h-4.8v-4.7h12.3l-5.8,11.9C26.1,34.6,20.8,34.6,20.8,34.6z M46.8,36.8l4.7-9.4H37.1v-4.7h22.1
		l-7.1,14.1H46.8z M41.8,30.4v10h14.3v4.7H41.8v13.8h-4.7V30.4H41.8L41.8,30.4z"/>
</g>
</svg>
